<svg xmlns="http://www.w3.org/2000/svg" xmlns:xlink="http://www.w3.org/1999/xlink" version="1.1" id="Layer_1" x="0px" y="0px" width="32px" height="32px" viewBox="0 0 32 32" enable-background="new 0 0 32 32" xml:space="preserve">
<path id="phone" d="M22.564,19.029c-0.467-0.289-1.166-0.209-1.562,0.18l-3.093,3.092c-0.396,0.389-1.025,0.389-1.414,0l-6.95-6.953  c-0.389-0.389-0.389-1.025,0-1.414l2.913-2.912c0.389-0.389,0.447-1.075,0.131-1.524l-5.3-7.513C6.976,1.536,6.363,1.448,5.933,1.79  c0,0-4.134,3.281-4.134,6.295c0,12.335,10,22.334,22.334,22.334c3.016,0,5.948-5.533,5.948-5.533  c0.258-0.485,0.087-1.122-0.38-1.411L22.564,19.029z"/>
</svg>