<svg xmlns="http://www.w3.org/2000/svg" xmlns:xlink="http://www.w3.org/1999/xlink" version="1.1" id="Layer_1" x="0px" y="0px" width="100px" height="100px" viewBox="0 0 100 100" enable-background="new 0 0 100 100" xml:space="preserve">
<path fill="#000000" d="M50.398,4.014c-15.601,0-28.244,12.643-28.244,28.241c0,0.461,0.013,0.918,0.035,1.374l-0.035-0.008v62.678  L37,57.121c3.987,2.152,8.55,3.375,13.399,3.375c15.591,0,28.238-12.643,28.238-28.241C78.637,16.657,65.988,4.014,50.398,4.014z   M50.398,55.137c-12.643,0-22.879-10.244-22.879-22.882c0-12.638,10.236-22.882,22.879-22.882c12.638,0,22.874,10.244,22.874,22.882  C73.271,44.893,63.036,55.137,50.398,55.137z"/>
</svg>