<?xml version="1.0" standalone="no"?>
<!DOCTYPE svg PUBLIC "-//W3C//DTD SVG 1.1//EN" "http://www.w3.org/Graphics/SVG/1.1/DTD/svg11.dtd" >
<svg xmlns="http://www.w3.org/2000/svg">
<metadata>
This is a custom SVG webfont generated by Font Squirrel.
Copyright   : Generated in 2010 by FontLab Studio Copyright info pending
</metadata>
<defs>
<font id="webfontvs5Wl4Hl" horiz-adv-x="696" >
<font-face units-per-em="2048" ascent="1536" descent="-512" />
<missing-glyph horiz-adv-x="512" />
<glyph unicode=" "  horiz-adv-x="512" />
<glyph unicode="&#x09;" horiz-adv-x="512" />
<glyph unicode="&#xa0;" horiz-adv-x="512" />
<glyph unicode="!" horiz-adv-x="630" d="M57 209q0 84 64.5 150.5t169.5 66.5q106 0 175 -63.5t69 -153.5q0 -88 -68 -149.5t-176 -61.5q-98 0 -166 64.5t-68 146.5zM176 526l-110 516v390h489v-390l-109 -516h-270z" />
<glyph unicode="&#x22;" horiz-adv-x="1032" d="M72 1436h393l-62 -613h-256zM567 1436h394l-74 -613h-256z" />
<glyph unicode="#" horiz-adv-x="1536" d="M143 887v278h316l96 375h270l-96 -375h275l96 375h270l-96 -375h231v-278h-301l-59 -234h248v-278h-320l-94 -377l-270 4l94 373h-275l-94 -377l-270 4l94 373h-227v278h299l59 234h-246zM659 887l-59 -234h274l60 234h-275z" />
<glyph unicode="$" horiz-adv-x="1234" d="M459 1589h289v-213q78 -37 114 -100l17 115h299v-480h-316q0 104 -63.5 166t-163.5 62q-43 0 -82 -28t-39 -77q0 -47 51 -84t128 -62.5t166 -64.5t166 -84t128 -128t51 -189.5t-41 -186t-109.5 -123.5t-144 -64.5t-161.5 -22.5v-211h-289v268q-55 31 -107 76l-22 -123 h-299v493h321q0 -57 27 -98t70 -60.5t78.5 -27.5t72.5 -10q150 0 150 100q0 41 -69 74t-166 66.5t-195.5 81.5t-167 141.5t-68.5 220.5q0 188 113.5 289.5t261.5 111.5v172z" />
<glyph unicode="%" horiz-adv-x="1906" d="M1462 0q-186 0 -304 115.5t-118 308.5q0 180 125 299t289 119q199 0 310.5 -115t111.5 -309q0 -184 -110.5 -301t-303.5 -117zM453 627q-186 0 -304 115.5t-118 308.5q0 180 125 298.5t288 118.5q199 0 310.5 -114.5t111.5 -309.5q0 -184 -110 -300.5t-303 -116.5zM618 0 h-231l885 1432h233zM1462 188q47 0 77 62.5t30 167.5q0 100 -33 165.5t-80 65.5q-41 2 -75.5 -60.5t-34.5 -164.5q0 -104 36.5 -170t79.5 -66zM453 815q47 0 76.5 62.5t29.5 166.5q0 100 -32.5 166t-80.5 66q-41 2 -75.5 -60.5t-34.5 -164.5q0 -104 37 -170t80 -66z" />
<glyph unicode="&#x26;" horiz-adv-x="1579" d="M20 420q0 264 302 418q-63 41 -106.5 115.5t-43.5 154.5q0 135 125 241.5t313 106.5q219 0 333 -106.5t114 -241.5q0 -111 -67.5 -184.5t-166.5 -114.5l191 -191q59 111 106 273h439v-258h-201q-47 -135 -117 -242l127 -125h119v-266h-305l-133 131q-80 -74 -210 -116 t-276 -42q-250 0 -396.5 126t-146.5 321zM403 432q0 -70 51.5 -113t114.5 -43q145 0 242 86l-260 256h-8q-51 -33 -95.5 -84t-44.5 -102zM727 1102q0 51 -28.5 88t-90.5 37q-43 0 -72.5 -35t-29.5 -78q0 -94 123 -147q6 -4 29.5 14t46 52t22.5 69z" />
<glyph unicode="'" horiz-adv-x="559" d="M74 1436h405l-73 -613h-256z" />
<glyph unicode="(" horiz-adv-x="794" d="M532 1669l211 -217q-59 -74 -94 -122t-96 -156.5t-93 -243.5t-32 -291q0 -162 29.5 -301t85 -245.5t97.5 -168t103 -133.5l-211 -219q-193 174 -337 459.5t-144 607.5q0 170 50.5 341t128 303t154 227.5t148.5 158.5z" />
<glyph unicode=")" horiz-adv-x="794" d="M51 1450l211 217q72 -63 148.5 -158.5t154.5 -227.5t128 -303t50 -341q0 -322 -144 -607.5t-337 -459.5l-211 219q61 72 103.5 133.5t97.5 168t85 245.5t30 301q0 156 -32 291t-93.5 243.5t-96.5 156.5t-94 122z" />
<glyph unicode="*" horiz-adv-x="845" d="M772 807l-186 -143l-162 227l-170 -234l-180 152l178 192l-242 84l84 201l234 -108l-27 254h252l-33 -261l232 115l84 -201l-248 -81z" />
<glyph unicode="+" horiz-adv-x="1120" d="M1069 891v-266h-375v-375h-266v375h-377v266h377v377h266v-377h375z" />
<glyph unicode="," horiz-adv-x="557" d="M223 -397l-235 133q115 145 162 294.5t32 370.5l373 -98q6 -195 -82 -376t-250 -324z" />
<glyph unicode="-" d="M51 352v273h594v-273h-594z" />
<glyph unicode="." horiz-adv-x="528" d="M31 213q0 86 63.5 159.5t168 73.5t170 -73.5t65.5 -159.5q0 -96 -62.5 -158.5t-173.5 -62.5q-98 0 -164.5 67.5t-66.5 153.5z" />
<glyph unicode="/" horiz-adv-x="1073" d="M301 -164l-291 4l762 1700h291z" />
<glyph unicode="0" horiz-adv-x="1226" d="M618 -25q-266 0 -426.5 190.5t-160.5 557.5q0 326 160.5 530.5t416.5 204.5q293 0 440.5 -199.5t147.5 -549.5q0 -344 -151 -539t-427 -195zM618 293q72 0 119 115.5t47 300.5q0 182 -51 300.5t-127 118.5q-61 2 -115.5 -113.5t-54.5 -291.5q0 -186 57 -308t125 -122z " />
<glyph unicode="1" horiz-adv-x="1015" d="M145 936l-94 227l42 21l44 21l39 21q29 15 43 26l41 31q27 19 47 40l48 48q28 28 55 61h364v-1160h191v-272h-820v272h205v760z" />
<glyph unicode="2" horiz-adv-x="1208" d="M289 967l-221 233q219 254 532 254q209 0 348 -123t139 -325q0 -164 -70.5 -251t-256.5 -208q-86 -55 -180.5 -136t-126.5 -139h360v164h344v-436h-1106v297q82 135 140.5 201.5t158.5 146.5q47 43 150.5 111.5t158 121t54.5 109.5q0 135 -172 135q-51 0 -103.5 -29.5 t-77 -53t-71.5 -72.5z" />
<glyph unicode="3" horiz-adv-x="1105" d="M508 -27q-141 0 -278.5 70t-198.5 162l209 217q133 -133 270 -133q86 0 135 41t49 116q0 150 -170 150h-153v244h149q76 0 125 36.5t49 104.5q0 78 -54 120t-126 42q-123 0 -240 -123l-198 240q66 72 188.5 133t249.5 61q248 0 385 -117.5t137 -316.5q0 -143 -151 -260 q190 -137 190 -336q0 -213 -170 -332t-397 -119z" />
<glyph unicode="4" horiz-adv-x="1196" d="M20 403v293l590 736h424v-807h109v-222h-109v-133h111v-270h-664v270h129v133h-590zM307 625h303v379z" />
<glyph unicode="5" horiz-adv-x="1181" d="M539 -27q-150 0 -296.5 75t-211.5 173l223 232q147 -152 287 -152q102 0 163.5 57.5t61.5 147.5q0 82 -60.5 140.5t-148.5 58.5q-102 0 -192 -95l-263 117l125 705h811v-306h-551l-34 -198q76 49 221 49q193 0 335 -130t142 -355q0 -125 -53.5 -225.5t-141.5 -163 t-195 -96.5t-222 -34z" />
<glyph unicode="6" horiz-adv-x="1189" d="M1118 1292l-139 -266q-178 104 -299 104q-111 -2 -181.5 -80.5t-86.5 -197.5q41 41 115.5 71.5t152.5 32.5q201 8 340 -121.5t139 -334.5q0 -213 -143.5 -361.5t-386.5 -156.5q-256 -8 -422 164.5t-174 476.5q-2 96 8 191t47 213t99.5 207t178 152.5t269.5 67.5 q109 4 253 -42t230 -120zM627 662q-121 -6 -211 -117q0 -88 50 -165t140 -77q78 0 133.5 51.5t53.5 124.5q-2 72 -42 128.5t-124 54.5z" />
<glyph unicode="7" horiz-adv-x="1159" d="M31 1026v406h1108v-273l-551 -1159h-443l549 1159h-336v-133h-327z" />
<glyph unicode="8" horiz-adv-x="1144" d="M31 420q0 102 61.5 206.5t159.5 153.5q-74 45 -114 120t-40 153q0 176 131 289.5t357 113.5q231 0 360 -113.5t129 -289.5q0 -96 -49 -170t-123 -109q100 -49 155.5 -147.5t55.5 -206.5q0 -193 -148.5 -320t-392.5 -127q-250 0 -396 126t-146 321zM385 432 q0 -72 56.5 -120t133.5 -48q80 0 133.5 44t55.5 124q0 94 -81 136t-179 46q-49 -29 -84 -79t-35 -103zM735 1069q0 55 -46 92t-107 37q-59 0 -103.5 -39t-44.5 -90t39 -84t79 -41t85 -10q98 47 98 135z" />
<glyph unicode="9" horiz-adv-x="1202" d="M72 143l139 267q178 -104 299 -105q117 4 184.5 76t65.5 203q-98 -98 -250 -105q-201 -8 -340 122t-139 335q0 213 143 361.5t387 156.5q258 8 429 -166t179 -475q2 -106 -8 -205.5t-50 -215.5t-104.5 -202t-181 -145t-270.5 -63q-109 -4 -253 41.5t-230 119.5zM563 774 q102 4 193 117q0 94 -42 168t-130 74q-78 0 -133.5 -51.5t-53.5 -125.5q2 -72 42 -128t124 -54z" />
<glyph unicode=":" horiz-adv-x="520" d="M31 201q0 86 62.5 157.5t164.5 71.5q104 0 167.5 -72.5t63.5 -156.5q0 -92 -64.5 -154.5t-166.5 -62.5q-96 0 -161.5 66.5t-65.5 150.5zM31 823q0 86 62.5 158t164.5 72q104 0 167.5 -73t63.5 -157q0 -94 -62 -155.5t-169 -61.5q-92 0 -159.5 67.5t-67.5 149.5z" />
<glyph unicode=";" horiz-adv-x="618" d="M121 788q0 86 63.5 160t168 74t170 -74t65.5 -160q0 -94 -63.5 -157.5t-172.5 -63.5q-94 0 -162.5 68.5t-68.5 152.5zM10 -264l236 -133q162 143 250 324.5t82 375.5l-373 98q14 -221 -33 -370.5t-162 -294.5z" />
<glyph unicode="&#x3c;" horiz-adv-x="1124" d="M72 694v256l880 363l101 -250l-627 -240l627 -241l-101 -250z" />
<glyph unicode="=" horiz-adv-x="946" d="M51 352v273h844v-273h-844zM51 805v272h844v-272h-844z" />
<glyph unicode="&#x3e;" horiz-adv-x="1124" d="M1053 952v-256l-881 -362l-100 250l626 239l-626 242l100 250z" />
<glyph unicode="?" horiz-adv-x="1064" d="M225 977l-221 223q227 264 533 264q213 0 350 -109.5t137 -310.5q0 -74 -34 -136t-82 -104t-95 -77t-81 -69.5t-34 -67.5v-113h-379l-2 164q0 63 51.5 126.5t112 105.5t111.5 90.5t51 85.5q0 96 -151 96q-61 0 -134.5 -49t-132.5 -119zM264 209q0 84 64.5 150.5 t169.5 66.5q106 0 174.5 -63.5t68.5 -153.5q0 -88 -67.5 -149.5t-175.5 -61.5q-98 0 -166 64.5t-68 146.5z" />
<glyph unicode="@" horiz-adv-x="1595" d="M797 924q113 0 200 -107l13 82l202 -27l-82 -583q2 0 3 -2q41 -25 75 -25q109 0 158 96.5t49 204.5q0 238 -174 396.5t-465 158.5q-147 0 -266 -63.5t-187.5 -163.5t-104.5 -210t-36 -216q0 -254 183.5 -433t449.5 -179q270 0 455 133l20 16l99 -141q-8 -8 -24.5 -19.5 t-72 -43t-118 -55.5t-159.5 -43t-200 -19q-326 0 -565.5 221t-239.5 563q0 106 28 218t89 221.5t148 195.5t217.5 139t283.5 53q369 0 589 -207.5t220 -521.5q0 -57 -10 -116.5t-37 -126t-66.5 -116.5t-108.5 -83t-155 -33q-129 16 -184 68q-135 -98 -270 -99 q-143 0 -257 119t-114 299q0 100 45 199.5t143.5 174.5t225.5 75zM965 578q-68 141 -168 141q-86 0 -137.5 -78t-51.5 -166q0 -92 44 -152.5t102 -60.5q88 0 172 49z" />
<glyph unicode="A" horiz-adv-x="1685" d="M1655 268v-268h-821v268h194l-43 140h-420l-43 -140h160v-268h-651v268h139l276 899h-84v265h787l362 -1164h144zM774 1096l-133 -443h268z" />
<glyph unicode="B" horiz-adv-x="1406" d="M829 0h-778v266h119v901h-119v265h764q502 0 502 -351q0 -131 -44 -201.5t-157 -115.5q121 -33 195.5 -120t74.5 -228q0 -217 -131 -316.5t-426 -99.5zM758 266q68 0 117 48t49 128t-45 130.5t-127 50.5h-158v-357h164zM723 1161h-129v-307h125q78 0 108.5 40t30.5 118 q0 70 -38 109.5t-97 39.5z" />
<glyph unicode="C" horiz-adv-x="1404" d="M1135 518l239 -262q-262 -289 -620 -289q-328 0 -525.5 197.5t-197.5 537.5q0 168 59.5 314.5t151.5 240t200.5 146.5t210.5 53q211 0 316 -139l47 115h321v-582h-366q-4 109 -59.5 183.5t-157.5 74.5q-109 0 -176.5 -117t-67.5 -289q0 -162 80 -273.5t219 -111.5 q31 0 62.5 8.5t58 20.5t53.5 29.5t46.5 34t40 36t30.5 31.5l22 27z" />
<glyph unicode="D" horiz-adv-x="1474" d="M668 0h-617v272h127v889h-127v271h625q362 0 570 -197t208 -500q0 -350 -204.5 -542.5t-581.5 -192.5zM983 735q0 180 -77 303t-230 123h-78v-889h78q156 2 231.5 130t75.5 333z" />
<glyph unicode="E" horiz-adv-x="1337" d="M51 1161v271h1235v-453h-354v182h-328v-282h389v-273h-389v-334h328v191h354v-463h-1235v272h129v889h-129z" />
<glyph unicode="F" horiz-adv-x="1306" d="M51 1161v271h1225v-453h-363v182h-309v-356h389v-273h-389v-260h209v-272h-762v272h127v889h-127z" />
<glyph unicode="G" horiz-adv-x="1589" d="M1067 0l-63 129q-37 -61 -127.5 -104t-202.5 -43q-274 0 -458.5 197.5t-184.5 522.5q0 324 189.5 539t438.5 215q70 0 130.5 -11t98.5 -25.5t70.5 -37t48 -38t32 -36t20.5 -24.5l43 148h305v-605h-367q-4 121 -71.5 190.5t-161.5 69.5q-121 0 -201 -113.5t-80 -271.5 q0 -162 76 -269t205 -107q139 0 197 100v86h-125v219h680v-219h-82v-512h-410z" />
<glyph unicode="H" horiz-adv-x="1572" d="M51 1161v271h664v-271h-127v-309h389v309h-121v271h666v-271h-119v-891h119v-270h-666v270h121v310h-389v-310h127v-270h-664v270h113v891h-113z" />
<glyph unicode="I" horiz-adv-x="782" d="M51 1161v271h680v-271h-127v-889h127v-272h-680v272h129v889h-129z" />
<glyph unicode="J" horiz-adv-x="948" d="M43 -395l-2 270q41 -18 92 -18q170 0 170 295v1011h-176v269h770v-269h-170v-1011q0 -283 -135 -426.5t-442 -143.5q-52 0 -107 23z" />
<glyph unicode="K" horiz-adv-x="1669" d="M696 1432v-265h-110v-333l381 333h-148v265h682v-265h-119l-297 -256l414 -645h119v-266h-799v266h139l-221 348l-151 -129v-219h110v-266h-645v266h111v901h-111v265h645z" />
<glyph unicode="L" horiz-adv-x="1249" d="M51 1161v271h647v-271h-108v-889h264v260h344v-532h-1147v272h113v889h-113z" />
<glyph unicode="M" horiz-adv-x="2064" d="M1481 1071h-8q-35 -190 -60 -274l-215 -797h-428l-229 817q-35 119 -43 254h-9v-807h117v-264h-555v264h111v903h-109v265h776l207 -766l197 766h780v-265h-112v-901h112v-266h-647v266h117l-2 684v121z" />
<glyph unicode="N" horiz-adv-x="1671" d="M1620 1432v-265h-135v-1167h-441l-522 780v-516h158v-264h-629v264h121v903h-119v265h588l504 -752l-2 487h-139v265h616z" />
<glyph unicode="O" horiz-adv-x="1515" d="M764 -37q-334 0 -533.5 193.5t-199.5 566.5q0 332 200.5 539.5t518.5 207.5q367 0 551 -202.5t184 -558.5q0 -350 -188.5 -548t-532.5 -198zM764 285q96 0 152.5 115.5t56.5 308.5q0 199 -56.5 322.5t-168.5 123.5h-4q-92 0 -149 -120q-58 -122 -58 -312 q0 -199 63.5 -318.5t163.5 -119.5z" />
<glyph unicode="P" horiz-adv-x="1310" d="M51 1163v269h664q172 0 287.5 -34t174 -99.5t81 -137t22.5 -168.5q0 -195 -153.5 -300t-385.5 -105h-155v-318h125v-270h-660v270h115v893h-115zM688 1165h-102v-356h92q90 0 145.5 45t55.5 125q0 90 -50.5 138t-140.5 48z" />
<glyph unicode="Q" horiz-adv-x="1546" d="M731 0q-319 0 -509.5 186.5t-190.5 538.5q0 315 190.5 514t497.5 199q350 0 525 -193.5t175 -533.5q0 -326 -170 -512q35 -133 90 -133q41 0 41 92v59h136v-104q0 -143 -80 -235.5t-228 -92.5q-119 0 -199.5 64.5t-117.5 162.5q-74 -12 -160 -12zM731 711q119 0 230 -80 q4 49 4 80q0 182 -69 305t-179 123h-3q-92 0 -162 -118q-71 -120 -71 -296q0 -66 8 -113q95 99 242 99zM731 307q57 0 109 45q-12 86 -36 129t-73 43q-84 0 -137 -149q61 -68 137 -68z" />
<glyph unicode="R" horiz-adv-x="1509" d="M51 1163v269h666q172 0 287.5 -32t175 -93.5t82 -131t22.5 -165.5q0 -117 -83 -198t-214 -99q109 -16 188.5 -99.5t79.5 -191.5q0 -139 50 -139q47 0 47 65v68h137v-113q0 -143 -70.5 -235.5t-228.5 -92.5q-199 0 -298 99.5t-99 281.5q0 143 -36 187.5t-169 44.5v-318 h125v-270h-662v270h115v893h-115zM690 1165h-102v-348h92q90 0 143.5 43t53.5 123q-1 182 -187 182z" />
<glyph unicode="S" horiz-adv-x="1454" d="M410 0h-359v516h381q0 -61 26.5 -103t71.5 -62.5t82 -29t78 -10.5q174 0 174 103q0 37 -58 65.5t-145.5 48t-189.5 57.5t-189 87t-145.5 141t-58.5 215q0 109 47 196t122 139t156.5 78.5t161.5 26.5q317 0 428 -208l21 172h352v-514h-371q0 111 -74.5 174t-187.5 63 q-51 0 -96 -29.5t-45 -78.5q0 -57 84 -100.5t202.5 -81.5t237.5 -87t203 -145t84 -230q0 -115 -49 -201.5t-131 -136t-174.5 -73t-188.5 -23.5q-268 0 -428 189z" />
<glyph unicode="T" horiz-adv-x="1435" d="M31 1432h1374v-533h-301v262h-172v-889h170v-272h-762v272h168v889h-176v-262h-301v533z" />
<glyph unicode="U" horiz-adv-x="1509" d="M31 1165v267h651v-265h-111v-442q0 -233 49.5 -316t155.5 -83q70 0 111 25.5t68.5 116.5t27.5 259v434h-111v271h607v-265h-111v-497q0 -705 -588 -705q-635 18 -635 694v506h-114z" />
<glyph unicode="V" horiz-adv-x="1583" d="M860 459h10q6 92 74 260l186 446h-106l-2 267h582v-267h-101l-491 -1165h-377l-543 1165h-112v267h755l-2 -267h-110l174 -458q59 -180 63 -248z" />
<glyph unicode="W" horiz-adv-x="2078" d="M655 463h11q4 47 100 508l102 461h426l129 -566q39 -182 62 -403h10q16 178 61 391l70 311h-113v267h586v-267h-112l-306 -1165h-485l-123 487q-27 98 -51 254h-8q-14 -102 -49 -249l-125 -492h-475l-271 1165h-114v267h675v-267h-118l53 -299q28 -122 65 -403z" />
<glyph unicode="X" horiz-adv-x="1710" d="M731 264v-264h-680v264h178l301 391l-370 510h-107v267h811v-267h-119l201 -272l209 272h-180v267h680v-267h-174l-310 -395l369 -504h119v-266h-817v266h116l-155 209l-43 57l-211 -268h182z" />
<glyph unicode="Y" horiz-adv-x="1370" d="M756 786h8q4 18 76 177l112 206h-112v263h551v-263h-111l-379 -665v-238h115v-266h-656v266h117v242l-397 661h-100v263h700v-263h-107l119 -217q6 -16 33 -82t31 -84z" />
<glyph unicode="Z" horiz-adv-x="1462" d="M412 893h-349v539h1344l4 -273l-749 -889h378l2 262h363v-532h-1354v266l746 895l-387 -2z" />
<glyph unicode="[" horiz-adv-x="1474" d="M59 1163v271h664q170 0 286.5 -39t175 -108.5t81 -145.5t22.5 -174q0 -215 -221 -338l229 -363h119v-266h-393l-340 549h-88v-279h125v-270h-660v270h115v893h-115zM696 1165h-102v-356h92q90 0 145.5 45t55.5 125q0 90 -50.5 138t-140.5 48z" />
<glyph unicode="\" horiz-adv-x="1073" d="M1063 -160l-291 -4l-762 1704h291z" />
<glyph unicode="]" horiz-adv-x="1325" d="M678 0h-617v266h84v1002h-84v268h474v-926l237 142h-147v272h573v-272h-158l-129 -76l285 -408h84v-268h-332l-344 489l-72 -49v-172h146v-268z" />
<glyph unicode="^" horiz-adv-x="1222" d="M465 1434h297l440 -813h-364l-224 458l-229 -458h-365z" />
<glyph unicode="_" horiz-adv-x="1431" d="M51 -2v170h1329v-170h-1329z" />
<glyph unicode="a" horiz-adv-x="1228" d="M160 700l-86 238q242 145 446 145q100 0 191.5 -20.5t176.5 -65.5t136 -132t51 -203v-400h123v-262h-438l-49 92q-51 -70 -129 -100.5t-148 -30.5q-162 0 -282.5 88t-120.5 254q0 170 124 273.5t302 103.5q55 0 103 -16.5t69.5 -31t29.5 -24.5v72q0 115 -194 115 q-135 -1 -305 -95zM528 227q43 0 79 20.5t52 47.5v78q-35 59 -120 59q-119 0 -119 -108q0 -43 30.5 -70t77.5 -27z" />
<glyph unicode="b" horiz-adv-x="1343" d="M524 0h-461v266h87v1002h-87v268h496v-592q33 39 113 67.5t155 28.5q223 0 350 -158q122 -154 122 -364q0 -7 -1 -14q-4 -240 -131 -383.5t-342 -143.5q-74 0 -128 14.5t-80.5 31t-61.5 47.5zM848 500q0 98 -41 175t-107 77q-63 0 -107 -73q-39 -64 -39 -162q0 -14 1 -28 q0 -102 44 -173.5t103 -71.5q66 0 106 69.5t40 186.5z" />
<glyph unicode="c" horiz-adv-x="1087" d="M737 561q-4 88 -34.5 151.5t-94.5 63.5q-86 0 -133 -76.5t-47 -185.5q0 -102 57.5 -171t153.5 -71h5q136 0 243 117l180 -209q-80 -88 -213 -148.5t-289 -60.5q-240 0 -401.5 143.5t-161.5 403.5q0 256 145.5 390t358.5 134q158 0 256 -116l35 98h241v-463h-301z" />
<glyph unicode="d" horiz-adv-x="1298" d="M754 967v303h-95v266h510v-1270h99v-266h-480l-34 76q-102 -94 -258 -94q-211 0 -343.5 159.5t-132.5 380.5q0 231 139.5 376.5t336.5 145.5q135 1 258 -77zM461 522q0 -98 41 -175t106 -77q63 0 108 73q39 64 38 162v27q0 102 -44 174t-104 72q-66 0 -105.5 -69.5 t-39.5 -186.5z" />
<glyph unicode="e" horiz-adv-x="1110" d="M907 340l172 -199q-207 -178 -528 -178q-215 0 -378 141.5t-163 413.5q0 246 156 390.5t395 144.5q180 0 312.5 -83t177.5 -214q23 -66 27 -156q1 -14 1 -27q0 -78 -24 -163h-645q6 -31 14 -51.5t29.5 -52.5t64.5 -48t103 -16q167 0 286 98zM573 776q-82 0 -117.5 -53 t-39.5 -111h309q-2 74 -33 119t-119 45z" />
<glyph unicode="f" horiz-adv-x="790" d="M842 1522l-123 -236q-45 20 -113 21q-66 0 -65 -109v-174h186v-266h-186v-490h123v-268h-611v268h82v490h-84v266h84v174q0 43 6 84t31 97.5t66 96.5t119.5 68.5t183.5 28.5q80 0 170 -15.5t131 -35.5z" />
<glyph unicode="g" horiz-adv-x="1310" d="M49 -240l109 228q49 -43 151.5 -87t204.5 -44q125 0 181.5 57t56.5 135v70q-88 -113 -240 -113q-246 0 -369 148.5t-123 363.5q0 244 133.5 385t381.5 141q63 0 123.5 -25.5t93.5 -57.5l41 63h487v-268h-123v-613q0 -262 -161.5 -411.5t-477.5 -151.5q-152 2 -272.5 56 t-196.5 124zM457 522q0 -98 41 -175t106 -77q63 0 108 73q39 64 38 162v27q0 102 -44 174t-104 72q-66 0 -105.5 -69.5t-39.5 -186.5z" />
<glyph unicode="h" horiz-adv-x="1353" d="M694 268v-268h-643v268h86v1002h-86v266h496v-639q25 41 124 102.5t197 61.5q113 0 189 -38t110.5 -108.5t47 -140t12.5 -164.5v-342h96v-268h-526v557q0 39 -2 61.5t-12.5 57.5t-37 53.5t-69.5 18.5q-129 0 -129 -191v-289h147z" />
<glyph unicode="i" horiz-adv-x="675" d="M625 268v-268h-574v268h86v490h-86v266h475v-756h99zM109 1323q0 78 60 143.5t160.5 65.5t163 -65.5t62.5 -143.5q0 -88 -60.5 -147.5t-164.5 -59.5q-92 0 -156.5 64.5t-64.5 142.5z" />
<glyph unicode="j" horiz-adv-x="737" d="M262 143v615h-86v266h475v-881q0 -86 -12 -157.5t-51 -151.5t-104.5 -135t-181.5 -91t-273 -36v274q68 0 114.5 24t69.5 51.5t35 77.5t13 74.5t1 69.5zM233 1323q0 78 60.5 143.5t161 65.5t163 -65.5t62.5 -143.5q0 -88 -60.5 -147.5t-164.5 -59.5q-92 0 -157 64.5 t-65 142.5z" />
<glyph unicode="k" horiz-adv-x="1339" d="M625 0h-547v266h84v1002h-84v268h473v-926l237 142h-147v270h573v-270h-157l-139 -88l276 -396h102v-268h-606v268h86l-155 221l-72 -49v-172h76v-268z" />
<glyph unicode="l" horiz-adv-x="679" d="M649 268v-268h-598v268h88v1004h-86v264h475v-1268h121z" />
<glyph unicode="m" horiz-adv-x="1859" d="M659 268v-268h-608v268h86v484h-86v270h387l45 -121q125 150 256 150q72 0 128.5 -14.5t92 -42t51 -46t33.5 -45.5q131 147 302 148q119 0 198.5 -40t117.5 -115t52.5 -152.5t14.5 -184.5v-283h100v-276h-520v502q0 12 1 44t1 50t-2 46t-7.5 45.5t-13.5 34.5t-22.5 25.5 t-34.5 8.5q-61 0 -85 -38t-24 -112v-332h123v-274h-530v522q0 137 -14.5 185.5t-71.5 48.5q-92 0 -92 -123v-365h122z" />
<glyph unicode="n" horiz-adv-x="1325" d="M682 268v-268h-631v268h86v490h-86v266h436l48 -127q119 164 292 164q92 0 161 -26.5t108 -68.5t62.5 -104.5t31.5 -121t8 -130.5v-342h96v-268h-516v559v48q0 11 -5 47t-16.5 50.5t-35 30t-57.5 15.5q-129 0 -129 -191v-291h147z" />
<glyph unicode="o" horiz-adv-x="1175" d="M594 -27q-238 0 -406 143q-166 141 -165 394q0 248 168 394q167 144 393 145q250 -4 407 -148q162 -147 162 -399q0 -243 -158 -385q-159 -144 -401 -144zM594 236q63 0 101 76.5t38 195.5t-40 195.5t-109 78.5q-59 0 -100.5 -77.5t-41.5 -190.5q0 -125 43 -201.5 t109 -76.5z" />
<glyph unicode="p" horiz-adv-x="1306" d="M846 500q0 98 -41 175t-107 77q-63 0 -107 -73q-39 -64 -39 -162q0 -14 1 -28q0 -102 44 -173.5t103 -71.5q66 0 106 69.5t40 186.5zM51 -418v268h86v902h-86v272h469l35 -72q119 88 248 88q229 0 356 -153.5t127 -382.5q0 -240 -132 -383.5t-335 -143.5q-172 0 -266 80 v-207h111v-268h-613z" />
<glyph unicode="q" horiz-adv-x="1351" d="M784 526q0 98 -41 175t-106 77q-63 0 -108 -72q-39 -64 -38 -162q0 -14 1 -28q0 -102 44 -174t103 -72q66 0 105.5 69.5t39.5 186.5zM651 -471v268h133v271q-104 -86 -262 -86q-201 0 -336 147t-135 389q0 256 137.5 391t352.5 135q88 0 155.5 -27.5t87.5 -53.5l39 61 h477v-266h-100v-955h100v-274h-649z" />
<glyph unicode="r" horiz-adv-x="847" d="M631 268v-268h-580v268h90v490h-88v266h385l62 -131q25 45 44 70.5t54 55.5t89 43t130 13v-368q-147 0 -218 -49.5t-71 -178.5v-211h103z" />
<glyph unicode="s" horiz-adv-x="1040" d="M287 0h-256v369h274q0 -49 44 -83t89 -44.5t84 -10.5q90 0 90 70q0 18 -16 31.5t-48 24t-66 19.5l-84 22q-50 13 -87 26q-272 96 -272 328q0 143 115.5 220t244.5 77q102 0 187.5 -46.5t118.5 -113.5l16 135h252v-369h-266q0 63 -64.5 109.5t-144.5 46.5t-80 -74 q0 -16 12 -29.5t41 -26.5t51.5 -21.5t72.5 -24.5l75 -25q80 -27 120.5 -45t98 -56t84 -94.5t26.5 -131.5q0 -139 -112.5 -223.5t-268.5 -84.5q-104 0 -189 43t-124 107z" />
<glyph unicode="t" horiz-adv-x="743" d="M31 758v266h110v188l377 121v-309h195v-266h-195v-365q0 -8 -1 -29.5t0 -34t2 -29.5t5 -27.5t11.5 -21.5t19.5 -16.5t29 -5.5q47 0 129 35v-262q-41 -16 -122 -27.5t-126 -11.5q-90 0 -150.5 21.5t-94.5 52.5t-51 94.5t-21.5 114.5t-6.5 147v365h-110z" />
<glyph unicode="u" horiz-adv-x="1292" d="M31 754v270h495v-494q0 -135 24.5 -196.5t86.5 -61.5q55 0 92 44t37 112v326h-135v270h530v-752h101v-272h-388l-55 129l-20 -23q-20 -25 -28 -31l-30 -29q-23 -22 -41 -30t-44.5 -21t-58.5 -18.5t-69 -5.5q-227 0 -319 119t-92 381v283h-86z" />
<glyph unicode="v" horiz-adv-x="1255" d="M668 332h8q4 94 61 225l99 207h-109v260h528v-260h-106l-354 -764h-318l-381 764h-96v260h623v-260h-103l94 -217q46 -133 54 -215z" />
<glyph unicode="w" horiz-adv-x="1785" d="M578 313h4q20 268 84 482l65 229h379l78 -266q59 -188 88 -445h4q18 193 55 324l35 121h-84v266h500v-266h-84l-240 -758h-432l-141 463l-148 -463h-422l-231 758h-88v266h551v-266h-70l45 -150q42 -139 52 -295z" />
<glyph unicode="x" horiz-adv-x="1329" d="M768 768v256h522v-256h-135l-217 -219l258 -295h96v-254h-653v254h96l-155 166l-148 -166h133v-254h-524v254h137l209 235l-254 279h-92v256h664v-256h-97l144 -156l153 156h-137z" />
<glyph unicode="y" horiz-adv-x="1187" d="M649 444l133 320h-94v260h520v-254h-98l-389 -946q-23 -49 -40 -80t-54 -76t-80 -70.5t-111.5 -44t-154.5 -18.5q-139 8 -248 103l153 241q68 -59 119 -69q9 -2 18 -2q34 0 62 26q35 33 51 84l29 86l-399 758h-84v262h630v-260h-96z" />
<glyph unicode="z" horiz-adv-x="1132" d="M317 614h-266v410h1014v-264l-487 -492h215v140h288v-408h-1030v268l494 492h-228v-146z" />
<glyph unicode="|" horiz-adv-x="681" d="M205 1436h272v-1854h-272v1854z" />
<glyph unicode="&#xaa;" horiz-adv-x="1228" d="M160 700l-86 238q242 145 446 145q100 0 191.5 -20.5t176.5 -65.5t136 -132t51 -203v-400h123v-262h-438l-49 92q-51 -70 -129 -100.5t-148 -30.5q-162 0 -282.5 88t-120.5 254q0 170 124 273.5t302 103.5q55 0 103 -16.5t69.5 -31t29.5 -24.5v72q0 115 -194 115 q-135 -1 -305 -95zM528 227q43 0 79 20.5t52 47.5v78q-35 59 -120 59q-119 0 -119 -108q0 -43 30.5 -70t77.5 -27z" />
<glyph unicode="&#xad;" d="M51 352v273h594v-273h-594z" />
<glyph unicode="&#xb2;" horiz-adv-x="1208" d="M289 967l-221 233q219 254 532 254q209 0 348 -123t139 -325q0 -164 -70.5 -251t-256.5 -208q-86 -55 -180.5 -136t-126.5 -139h360v164h344v-436h-1106v297q82 135 140.5 201.5t158.5 146.5q47 43 150.5 111.5t158 121t54.5 109.5q0 135 -172 135q-51 0 -103.5 -29.5 t-77 -53t-71.5 -72.5z" />
<glyph unicode="&#xb3;" horiz-adv-x="1105" d="M508 -27q-141 0 -278.5 70t-198.5 162l209 217q133 -133 270 -133q86 0 135 41t49 116q0 150 -170 150h-153v244h149q76 0 125 36.5t49 104.5q0 78 -54 120t-126 42q-123 0 -240 -123l-198 240q66 72 188.5 133t249.5 61q248 0 385 -117.5t137 -316.5q0 -143 -151 -260 q190 -137 190 -336q0 -213 -170 -332t-397 -119z" />
<glyph unicode="&#xb9;" horiz-adv-x="1015" d="M145 936l-94 227l42 21l44 21l39 21q29 15 43 26l41 31q27 19 47 40l48 48q28 28 55 61h364v-1160h191v-272h-820v272h205v760z" />
<glyph unicode="&#xba;" horiz-adv-x="1175" d="M594 -27q-238 0 -406 143q-166 141 -165 394q0 248 168 394q167 144 393 145q250 -4 407 -148q162 -147 162 -399q0 -243 -158 -385q-159 -144 -401 -144zM594 236q63 0 101 76.5t38 195.5t-40 195.5t-109 78.5q-59 0 -100.5 -77.5t-41.5 -190.5q0 -125 43 -201.5 t109 -76.5z" />
<glyph unicode="&#xbf;" horiz-adv-x="1064" d="M1061 -51l-221 223q-59 -70 -132 -119t-135 -49q-152 0 -151 96q0 37 51 85t111.5 90t112 105.5t51.5 127.5l-3 164h-378v-113q0 -33 -34 -67.5t-81 -69.5t-95 -77t-82 -104.5t-34 -136.5q0 -201 137 -310t350 -109q306 0 533 264zM801 940q0 -84 -64.5 -150.5 t-169.5 -66.5q-106 0 -174.5 63.5t-68.5 153.5q0 88 67.5 149.5t175.5 61.5q98 0 166 -64.5t68 -146.5z" />
<glyph unicode="&#xc2;" horiz-adv-x="1685" d="M608 2407h297l440 -813h-364l-224 458l-229 -458h-365zM1655 268v-268h-821v268h194l-43 140h-420l-43 -140h160v-268h-651v268h139l276 899h-84v265h787l362 -1164h144zM774 1096l-133 -443h268z" />
<glyph unicode="&#xc5;" horiz-adv-x="1685" d="M1655 268v-268h-821v268h194l-43 140h-420l-43 -140h160v-268h-651v268h139l276 899h-84v265h787l362 -1164h144zM774 1096l-133 -443h268z" />
<glyph unicode="&#xca;" horiz-adv-x="1337" d="M522 2407h297l440 -813h-364l-224 458l-229 -458h-365zM51 1161v271h1235v-453h-354v182h-328v-282h389v-273h-389v-334h328v191h354v-463h-1235v272h129v889h-129z" />
<glyph unicode="&#xce;" horiz-adv-x="782" d="M244 2407h297l440 -813h-364l-224 458l-229 -458h-365zM51 1161v271h680v-271h-127v-889h127v-272h-680v272h129v889h-129z" />
<glyph unicode="&#xd4;" horiz-adv-x="1515" d="M604 2407h297l440 -813h-364l-224 458l-229 -458h-365zM764 -37q-334 0 -533.5 193.5t-199.5 566.5q0 332 200.5 539.5t518.5 207.5q367 0 551 -202.5t184 -558.5q0 -350 -188.5 -548t-532.5 -198zM764 285q96 0 152.5 115.5t56.5 308.5q0 199 -56.5 322.5t-168.5 123.5 h-4q-92 0 -149 -120q-58 -122 -58 -312q0 -199 63.5 -318.5t163.5 -119.5z" />
<glyph unicode="&#xdb;" horiz-adv-x="1509" d="M608 2407h297l440 -813h-364l-224 458l-229 -458h-365zM31 1165v267h651v-265h-111v-442q0 -233 49.5 -316t155.5 -83q70 0 111 25.5t68.5 116.5t27.5 259v434h-111v271h607v-265h-111v-497q0 -705 -588 -705q-635 18 -635 694v506h-114z" />
<glyph unicode="&#xe2;" horiz-adv-x="1228" d="M375 2020h297l440 -813h-364l-224 458l-229 -458h-365zM160 700l-86 238q242 145 446 145q100 0 191.5 -20.5t176.5 -65.5t136 -132t51 -203v-400h123v-262h-438l-49 92q-51 -70 -129 -100.5t-148 -30.5q-162 0 -282.5 88t-120.5 254q0 170 124 273.5t302 103.5 q55 0 103 -16.5t69.5 -31t29.5 -24.5v72q0 115 -194 115q-135 -1 -305 -95zM528 227q43 0 79 20.5t52 47.5v78q-35 59 -120 59q-119 0 -119 -108q0 -43 30.5 -70t77.5 -27z" />
<glyph unicode="&#xe5;" horiz-adv-x="1228" d="M160 700l-86 238q242 145 446 145q100 0 191.5 -20.5t176.5 -65.5t136 -132t51 -203v-400h123v-262h-438l-49 92q-51 -70 -129 -100.5t-148 -30.5q-162 0 -282.5 88t-120.5 254q0 170 124 273.5t302 103.5q55 0 103 -16.5t69.5 -31t29.5 -24.5v72q0 115 -194 115 q-135 -1 -305 -95zM528 227q43 0 79 20.5t52 47.5v78q-35 59 -120 59q-119 0 -119 -108q0 -43 30.5 -70t77.5 -27z" />
<glyph unicode="&#xea;" horiz-adv-x="1110" d="M416 1989h297l440 -813h-364l-224 458l-229 -458h-365zM907 340l172 -199q-207 -178 -528 -178q-215 0 -378 141.5t-163 413.5q0 246 156 390.5t395 144.5q180 0 312.5 -83t177.5 -214q23 -66 27 -156q1 -14 1 -27q0 -78 -24 -163h-645q6 -31 14 -51.5t29.5 -52.5 t64.5 -48t103 -16q167 0 286 98zM573 776q-82 0 -117.5 -53t-39.5 -111h309q-2 74 -33 119t-119 45z" />
<glyph unicode="&#xee;" horiz-adv-x="675" d="M182 2468h297l440 -813h-364l-224 458l-229 -458h-365zM625 268v-268h-574v268h86v490h-86v266h475v-756h99zM109 1323q0 78 60 143.5t160.5 65.5t163 -65.5t62.5 -143.5q0 -88 -60.5 -147.5t-164.5 -59.5q-92 0 -156.5 64.5t-64.5 142.5z" />
<glyph unicode="&#xf4;" horiz-adv-x="1175" d="M436 1985h297l440 -813h-364l-224 458l-229 -458h-365zM594 -27q-238 0 -406 143q-166 141 -165 394q0 248 168 394q167 144 393 145q250 -4 407 -148q162 -147 162 -399q0 -243 -158 -385q-159 -144 -401 -144zM594 236q63 0 101 76.5t38 195.5t-40 195.5t-109 78.5 q-59 0 -100.5 -77.5t-41.5 -190.5q0 -125 43 -201.5t109 -76.5z" />
<glyph unicode="&#xfb;" horiz-adv-x="1292" d="M449 1985h297l440 -813h-364l-224 458l-229 -458h-365zM31 754v270h495v-494q0 -135 24.5 -196.5t86.5 -61.5q55 0 92 44t37 112v326h-135v270h530v-752h101v-272h-388l-55 129l-20 -23q-20 -25 -28 -31l-30 -29q-23 -22 -41 -30t-44.5 -21t-58.5 -18.5t-69 -5.5 q-227 0 -319 119t-92 381v283h-86z" />
<glyph unicode="&#x152;" horiz-adv-x="2852" d="M1567 1161v271h1235v-453h-354v182h-328v-282h389v-273h-389v-334h328v191h354v-463h-1235v272h129v889h-129zM764 -37q-334 0 -533.5 193.5t-199.5 566.5q0 332 200.5 539.5t518.5 207.5q367 0 551 -202.5t184 -558.5q0 -350 -188.5 -548t-532.5 -198zM764 285 q96 0 152.5 115.5t56.5 308.5q0 199 -56.5 322.5t-168.5 123.5h-4q-92 0 -149 -120q-58 -122 -58 -312q0 -199 63.5 -318.5t163.5 -119.5z" />
<glyph unicode="&#x153;" horiz-adv-x="2285" d="M2083 340l172 -199q-207 -178 -528 -178q-215 0 -378 141.5t-163 413.5q0 246 156 390.5t395 144.5q180 0 312.5 -83t177.5 -214q23 -66 27 -156q1 -14 1 -27q0 -78 -24 -163h-645q6 -31 14 -51.5t29.5 -52.5t64.5 -48t103 -16q167 0 286 98zM1749 776q-82 0 -117.5 -53 t-39.5 -111h309q-2 74 -33 119t-119 45zM594 -27q-238 0 -406 143q-166 141 -165 394q0 248 168 394q167 144 393 145q250 -4 407 -148q162 -147 162 -399q0 -243 -158 -385q-159 -144 -401 -144zM594 236q63 0 101 76.5t38 195.5t-40 195.5t-109 78.5q-59 0 -100.5 -77.5 t-41.5 -190.5q0 -125 43 -201.5t109 -76.5z" />
<glyph unicode="&#x2c6;" horiz-adv-x="1222" d="M465 1434h297l440 -813h-364l-224 458l-229 -458h-365z" />
<glyph unicode="&#x2da;" horiz-adv-x="1705" />
<glyph unicode="&#x2000;" horiz-adv-x="1232" />
<glyph unicode="&#x2001;" horiz-adv-x="2467" />
<glyph unicode="&#x2002;" horiz-adv-x="1232" />
<glyph unicode="&#x2003;" horiz-adv-x="2467" />
<glyph unicode="&#x2004;" horiz-adv-x="821" />
<glyph unicode="&#x2005;" horiz-adv-x="616" />
<glyph unicode="&#x2006;" horiz-adv-x="409" />
<glyph unicode="&#x2007;" horiz-adv-x="409" />
<glyph unicode="&#x2008;" horiz-adv-x="307" />
<glyph unicode="&#x2009;" horiz-adv-x="493" />
<glyph unicode="&#x200a;" horiz-adv-x="135" />
<glyph unicode="&#x2010;" d="M51 352v273h594v-273h-594z" />
<glyph unicode="&#x2011;" d="M51 352v273h594v-273h-594z" />
<glyph unicode="&#x2012;" d="M51 352v273h594v-273h-594z" />
<glyph unicode="&#x2013;" horiz-adv-x="915" d="M66 352v273h772v-273h-772z" />
<glyph unicode="&#x2014;" horiz-adv-x="1292" d="M86 352v273h1104v-273h-1104z" />
<glyph unicode="&#x2019;" horiz-adv-x="559" d="M74 1436h405l-73 -613h-256z" />
<glyph unicode="&#x201c;" horiz-adv-x="1032" d="M72 1436h393l-62 -613h-256zM567 1436h394l-74 -613h-256z" />
<glyph unicode="&#x201d;" horiz-adv-x="1032" d="M72 1436h393l-62 -613h-256zM567 1436h394l-74 -613h-256z" />
<glyph unicode="&#x2022;" horiz-adv-x="712" d="M123 659q0 86 63.5 160t168 74t170 -74t65.5 -160q0 -96 -62.5 -158.5t-173.5 -62.5q-98 0 -164.5 67.5t-66.5 153.5z" />
<glyph unicode="&#x2026;" horiz-adv-x="1585" d="M1088 213q0 86 63.5 159.5t168 73.5t170 -73.5t65.5 -159.5q0 -96 -62.5 -158.5t-173.5 -62.5q-98 0 -164.5 67.5t-66.5 153.5zM559 213q0 86 63.5 159.5t168 73.5t170 -73.5t65.5 -159.5q0 -96 -62.5 -158.5t-173.5 -62.5q-98 0 -164.5 67.5t-66.5 153.5zM31 213 q0 86 63.5 159.5t168 73.5t170 -73.5t65.5 -159.5q0 -96 -62.5 -158.5t-173.5 -62.5q-98 0 -164.5 67.5t-66.5 153.5z" />
<glyph unicode="&#x202f;" horiz-adv-x="493" />
<glyph unicode="&#x2039;" horiz-adv-x="1124" d="M72 694v256l880 363l101 -250l-627 -240l627 -241l-101 -250z" />
<glyph unicode="&#x203a;" horiz-adv-x="1124" d="M1053 952v-256l-881 -362l-100 250l626 239l-626 242l100 250z" />
<glyph unicode="&#x205f;" horiz-adv-x="616" />
<glyph unicode="&#x2122;" horiz-adv-x="3500" d="M2917 1071h-8q-35 -190 -60 -274l-215 -797h-428l-229 817q-35 119 -43 254h-9v-807h117v-264h-555v264h111v903h-109v265h776l207 -766l197 766h780v-265h-112v-901h112v-266h-647v266h117l-2 684v121zM31 1432h1374v-533h-301v262h-172v-889h170v-272h-762v272h168v889 h-176v-262h-301v533z" />
<glyph unicode="&#xe000;" horiz-adv-x="1025" d="M0 1025h1025v-1025h-1025v1025z" />
<glyph unicode="&#xfb01;" horiz-adv-x="1466" d="M1416 268v-268h-574v268h86v490h-86v266h475v-756h99zM900 1323q0 78 60 143.5t160.5 65.5t163 -65.5t62.5 -143.5q0 -88 -60.5 -147.5t-164.5 -59.5q-92 0 -156.5 64.5t-64.5 142.5zM842 1522l-123 -236q-45 20 -113 21q-66 0 -65 -109v-174h186v-266h-186v-490h123 v-268h-611v268h82v490h-84v266h84v174q0 43 6 84t31 97.5t66 96.5t119.5 68.5t183.5 28.5q80 0 170 -15.5t131 -35.5z" />
<glyph unicode="&#xfb02;" horiz-adv-x="1470" d="M1440 268v-268h-598v268h88v1004h-86v264h475v-1268h121zM842 1522l-123 -236q-45 20 -113 21q-66 0 -65 -109v-174h186v-266h-186v-490h123v-268h-611v268h82v490h-84v266h84v174q0 43 6 84t31 97.5t66 96.5t119.5 68.5t183.5 28.5q80 0 170 -15.5t131 -35.5z" />
<glyph unicode="&#xfb03;" horiz-adv-x="2256" d="M2206 268v-268h-574v268h86v490h-86v266h475v-756h99zM1690 1323q0 78 60 143.5t160.5 65.5t163 -65.5t62.5 -143.5q0 -88 -60.5 -147.5t-164.5 -59.5q-92 0 -156.5 64.5t-64.5 142.5zM1633 1522l-123 -236q-45 20 -113 21q-66 0 -65 -109v-174h186v-266h-186v-490h123 v-268h-611v268h82v490h-84v266h84v174q0 43 6 84t31 97.5t66 96.5t119.5 68.5t183.5 28.5q80 0 170 -15.5t131 -35.5zM842 1522l-123 -236q-45 20 -113 21q-66 0 -65 -109v-174h186v-266h-186v-490h123v-268h-611v268h82v490h-84v266h84v174q0 43 6 84t31 97.5t66 96.5 t119.5 68.5t183.5 28.5q80 0 170 -15.5t131 -35.5z" />
<glyph unicode="&#xfb04;" horiz-adv-x="2260" d="M2230 268v-268h-598v268h88v1004h-86v264h475v-1268h121zM1633 1522l-123 -236q-45 20 -113 21q-66 0 -65 -109v-174h186v-266h-186v-490h123v-268h-611v268h82v490h-84v266h84v174q0 43 6 84t31 97.5t66 96.5t119.5 68.5t183.5 28.5q80 0 170 -15.5t131 -35.5zM842 1522 l-123 -236q-45 20 -113 21q-66 0 -65 -109v-174h186v-266h-186v-490h123v-268h-611v268h82v490h-84v266h84v174q0 43 6 84t31 97.5t66 96.5t119.5 68.5t183.5 28.5q80 0 170 -15.5t131 -35.5z" />
</font>
</defs>
</svg>
